# xmcd
#
# Track frame offsets:
#	150
#	15315
#	33335
#	57987
#	77300
#	99547
#	131387
#	148872
#	171035
#
# Disc length: 2449 seconds
#
# Revision: 0
# Processed by: cddbd v1.5.2PL0 Copyright (c) Steve Scherf et al.
# Submitted via: EasyCDDAExtractor 8.2.3.1
#
DISCID=66098f09
DTITLE=Various Artist - 100% Chicago Style Blues
DYEAR=1992
DGENRE=Blues
TTITLE0=DON "Griff" GRIFFIN - Jam It
TTITLE1=CASEY JONES - I Got Troubles
TTITLE2=ROBERT COVINGTON - Help Your Self
TTITLE3=L.B.BLUE - The Blues Will Get You
TTITLE4=CASEY JONES - Down And Under
TTITLE5=ROBERT COVINGTON - Better Days Are Comin'
TTITLE6=CASEY JONES - Messed Up
TTITLE7=L.B.BLUE - Lonesome Blues
TTITLE8=DON "Griff" GRIFFIN - The Blues Are Here To Stay
EXTD=
EXTT0=
EXTT1=
EXTT2=
EXTT3=
EXTT4=
EXTT5=
EXTT6=
EXTT7=
EXTT8=
PLAYORDER=
